<?xml version="1.0" encoding="utf-8"?>
<!-- Generator: Adobe Illustrator 17.0.0, SVG Export Plug-In . SVG Version: 6.00 Build 0)  -->
<!DOCTYPE svg PUBLIC "-//W3C//DTD SVG 1.1//EN" "http://www.w3.org/Graphics/SVG/1.1/DTD/svg11.dtd">
<svg version="1.1" id="Layer_1" xmlns="http://www.w3.org/2000/svg" xmlns:xlink="http://www.w3.org/1999/xlink" x="0px" y="0px"
	 width="20px" height="20px" viewBox="-1033.5 758.5 20 20" enable-background="new -1033.5 758.5 20 20" xml:space="preserve">
<title>building-15.svg</title>
<rect x="-1033.5" y="758.5" fill="none" width="20" height="20"/>
<path d="M-1028.5,762.5v11h5v-3h3v3h1v-11H-1028.5z M-1024.5,772.5h-3v-2h3V772.5z M-1024.5,769.5h-3v-2h3V769.5z M-1024.5,766.5h-3
	v-2h3V766.5z M-1020.5,769.5h-3v-2h3V769.5z M-1020.5,766.5h-3v-2h3V766.5z"/>
<path fill="#FC329B" d="M-1028.5,762.5v11h5v-3h3v3h1v-11H-1028.5z M-1024.5,772.5h-3v-2h3V772.5z M-1024.5,769.5h-3v-2h3V769.5z
	 M-1024.5,766.5h-3v-2h3V766.5z M-1020.5,769.5h-3v-2h3V769.5z M-1020.5,766.5h-3v-2h3V766.5z"/>
</svg>
